<svg width="227" height="54" viewBox="0 0 227 54" fill="none" xmlns="http://www.w3.org/2000/svg">
<g filter="url(#filter0_b_1_8943)">
<rect y="0.982422" width="227" height="52.0357" rx="26.0179" fill="white"/>
<path d="M72.4256 34.2866V36.3281H63.3227V23.0715H72.4256V25.1042H65.6559V28.4625H71.586V30.5041H65.6559V34.2866H72.4256ZM81.3065 36.5402C80.352 36.5402 79.4682 36.3723 78.6551 36.0365C77.848 35.6948 77.1498 35.2234 76.5606 34.6224C75.9773 34.0156 75.5236 33.3174 75.1996 32.5279C74.8402 31.6441 74.6605 30.7014 74.6605 29.6998C74.6605 28.6982 74.8402 27.7614 75.1996 26.8894C75.5236 26.094 75.9773 25.3959 76.5606 24.7949C77.1498 24.188 77.848 23.7167 78.6551 23.3809C79.4623 23.045 80.3461 22.8771 81.3065 22.8771C82.5732 22.8771 83.7044 23.1776 84.7001 23.7786C85.7018 24.3736 86.4942 25.1808 87.0775 26.2001L87.157 26.3327L87.2189 26.4652L85.2127 27.5257L85.1332 27.3578C84.9093 26.8806 84.6059 26.4593 84.2229 26.094C83.8458 25.7287 83.4069 25.443 82.9061 25.2368C82.4112 25.0306 81.878 24.9275 81.3065 24.9275C80.4109 24.9275 79.6273 25.1543 78.9556 25.608C78.2898 26.0616 77.7861 26.6714 77.4444 27.4374C77.1439 28.1208 76.9936 28.875 76.9936 29.6998C76.9936 30.5129 77.1439 31.2641 77.4444 31.9534C77.7802 32.7194 78.284 33.3321 78.9556 33.7917C79.6273 34.2513 80.4109 34.481 81.3065 34.481C81.8662 34.481 82.3906 34.3868 82.8796 34.1982C83.3745 34.0097 83.8134 33.7328 84.1964 33.3675C84.3024 33.2673 84.4615 33.0876 84.6736 32.8284L84.7532 32.74L84.8239 32.6693C84.8533 32.6398 84.871 32.6192 84.8769 32.6074L84.8681 31.0962H80.5022V29.0547H87.051V36.3281H84.8857V35.5504C84.3614 35.8745 83.7928 36.1219 83.1801 36.2928C82.5732 36.4577 81.9487 36.5402 81.3065 36.5402ZM92.2377 23.0715V36.3281H89.9045V23.0715H92.2377ZM100.429 36.5402C99.7281 36.5402 99.0623 36.4312 98.4319 36.2132C97.8014 35.9893 97.2329 35.6741 96.7262 35.2676C96.2254 34.8611 95.8129 34.3838 95.4889 33.8359C95.3239 33.5649 95.1619 33.2143 95.0028 32.7842L94.9144 32.5279L97.0355 31.6353L97.0885 31.812C97.3537 32.631 97.7572 33.2821 98.2993 33.7652C98.8413 34.2424 99.5513 34.481 100.429 34.481C100.847 34.481 101.23 34.4192 101.578 34.2954C101.932 34.1717 102.211 33.9861 102.418 33.7387C102.63 33.4853 102.736 33.1819 102.736 32.8284C102.736 32.4926 102.671 32.2156 102.541 31.9976C102.418 31.7796 102.235 31.6029 101.993 31.4674C101.752 31.326 101.434 31.1934 101.039 31.0697L99.8901 30.7338C99.3716 30.5924 98.9857 30.4834 98.7323 30.4068C97.7072 30.0946 96.8941 29.6232 96.2931 28.9928C95.6922 28.3624 95.3917 27.5847 95.3917 26.6596C95.3917 25.9173 95.5891 25.2574 95.9838 24.68C96.3844 24.1026 96.9265 23.6548 97.6099 23.3367C98.2993 23.0185 99.0623 22.8594 99.8989 22.8594C100.842 22.8594 101.714 23.0686 102.515 23.4869C103.316 23.8993 103.958 24.4649 104.442 25.1837C104.63 25.4548 104.807 25.8053 104.972 26.2354L105.06 26.4829L102.948 27.4285L102.886 27.2429C102.65 26.53 102.288 25.9644 101.799 25.5461C101.31 25.1219 100.683 24.9098 99.9166 24.9098C99.2744 24.9098 98.7471 25.0541 98.3346 25.3428C97.9222 25.6315 97.716 26.041 97.716 26.5713C97.716 27.0132 97.8721 27.3873 98.1844 27.6937C98.5026 27.9941 98.9268 28.221 99.457 28.3742L101.64 29.0016C103.926 29.6615 105.069 30.8988 105.069 32.7135C105.069 33.4853 104.863 34.1599 104.45 34.7373C104.038 35.3147 103.478 35.7596 102.771 36.0718C102.07 36.3841 101.289 36.5402 100.429 36.5402ZM113.136 36.3458V23.0715H117.625C118.556 23.0715 119.422 23.2365 120.224 23.5664C121.084 23.92 121.803 24.4208 122.38 25.0689C122.963 25.7111 123.393 26.4328 123.67 27.2341C123.953 28.0354 124.094 28.8573 124.094 29.6998C124.094 30.5483 123.953 31.3731 123.67 32.1744C123.393 32.9698 122.963 33.6886 122.38 34.3308C121.803 34.973 121.084 35.4738 120.224 35.8332C119.41 36.1749 118.544 36.3458 117.625 36.3458H113.136ZM117.616 34.3396C118.047 34.3396 118.491 34.2601 118.951 34.101C119.581 33.883 120.109 33.5472 120.533 33.0935C120.963 32.634 121.281 32.1125 121.487 31.5292C121.694 30.9401 121.797 30.3303 121.797 29.6998C121.797 29.0458 121.688 28.4125 121.47 27.7997C121.169 26.9749 120.683 26.315 120.011 25.8201C119.346 25.3193 118.547 25.0689 117.616 25.0689H115.425V34.3308L117.616 34.3396ZM129.104 23.0715V36.3281H126.771V23.0715H129.104ZM138.427 36.5402C137.473 36.5402 136.589 36.3723 135.776 36.0365C134.969 35.6948 134.27 35.2234 133.681 34.6224C133.098 34.0156 132.644 33.3174 132.32 32.5279C131.961 31.6441 131.781 30.7014 131.781 29.6998C131.781 28.6982 131.961 27.7614 132.32 26.8894C132.644 26.094 133.098 25.3959 133.681 24.7949C134.27 24.188 134.969 23.7167 135.776 23.3809C136.583 23.045 137.467 22.8771 138.427 22.8771C139.694 22.8771 140.825 23.1776 141.821 23.7786C142.822 24.3736 143.615 25.1808 144.198 26.2001L144.278 26.3327L144.34 26.4652L142.333 27.5257L142.254 27.3578C142.03 26.8806 141.727 26.4593 141.344 26.094C140.967 25.7287 140.528 25.443 140.027 25.2368C139.532 25.0306 138.999 24.9275 138.427 24.9275C137.532 24.9275 136.748 25.1543 136.076 25.608C135.411 26.0616 134.907 26.6714 134.565 27.4374C134.265 28.1208 134.114 28.875 134.114 29.6998C134.114 30.5129 134.265 31.2641 134.565 31.9534C134.901 32.7194 135.405 33.3321 136.076 33.7917C136.748 34.2513 137.532 34.481 138.427 34.481C138.987 34.481 139.511 34.3868 140 34.1982C140.495 34.0097 140.934 33.7328 141.317 33.3675C141.423 33.2673 141.582 33.0876 141.794 32.8284L141.874 32.74L141.945 32.6693C141.974 32.6398 141.992 32.6192 141.998 32.6074L141.989 31.0962H137.623V29.0547H144.172V36.3281H142.006V35.5504C141.482 35.8745 140.914 36.1219 140.301 36.2928C139.694 36.4577 139.069 36.5402 138.427 36.5402ZM149.358 23.0715V36.3281H147.025V23.0715H149.358ZM157.859 25.1042V36.3281H155.535V25.1042H152.035V23.0715H161.341V25.1042H157.859ZM165.971 32.8549L164.716 36.3281H162.259L167.244 23.0715H169.383L174.367 36.3281H171.901L170.664 32.8549H165.971ZM169.913 30.8134L168.313 26.3945L166.714 30.8134H169.913ZM186.147 34.2866V36.3281H177.044V23.0715H179.377V34.2866H186.147ZM193.896 36.5402C193.195 36.5402 192.529 36.4312 191.899 36.2132C191.269 35.9893 190.7 35.6741 190.193 35.2676C189.692 34.8611 189.28 34.3838 188.956 33.8359C188.791 33.5649 188.629 33.2143 188.47 32.7842L188.382 32.5279L190.503 31.6353L190.556 31.812C190.821 32.631 191.224 33.2821 191.766 33.7652C192.308 34.2424 193.018 34.481 193.896 34.481C194.315 34.481 194.698 34.4192 195.045 34.2954C195.399 34.1717 195.679 33.9861 195.885 33.7387C196.097 33.4853 196.203 33.1819 196.203 32.8284C196.203 32.4926 196.138 32.2156 196.009 31.9976C195.885 31.7796 195.702 31.6029 195.461 31.4674C195.219 31.326 194.901 31.1934 194.506 31.0697L193.357 30.7338C192.839 30.5924 192.453 30.4834 192.199 30.4068C191.174 30.0946 190.361 29.6232 189.76 28.9928C189.159 28.3624 188.859 27.5847 188.859 26.6596C188.859 25.9173 189.056 25.2574 189.451 24.68C189.852 24.1026 190.394 23.6548 191.077 23.3367C191.766 23.0185 192.529 22.8594 193.366 22.8594C194.309 22.8594 195.181 23.0686 195.982 23.4869C196.783 23.8993 197.425 24.4649 197.909 25.1837C198.097 25.4548 198.274 25.8053 198.439 26.2354L198.527 26.4829L196.415 27.4285L196.353 27.2429C196.118 26.53 195.755 25.9644 195.266 25.5461C194.777 25.1219 194.15 24.9098 193.384 24.9098C192.741 24.9098 192.214 25.0541 191.802 25.3428C191.389 25.6315 191.183 26.041 191.183 26.5713C191.183 27.0132 191.339 27.3873 191.652 27.6937C191.97 27.9941 192.394 28.221 192.924 28.3742L195.107 29.0016C197.393 29.6615 198.536 30.8988 198.536 32.7135C198.536 33.4853 198.33 34.1599 197.917 34.7373C197.505 35.3147 196.945 35.7596 196.238 36.0718C195.537 36.3841 194.756 36.5402 193.896 36.5402Z" fill="#2D3B72"/>
<path d="M50.1614 39.7322C50.0084 38.0852 50.7113 36.5937 51.8782 35.6472C52.3325 35.2773 53.0134 35.5945 53.0134 36.1786C53.0134 36.3929 52.9118 36.5913 52.7452 36.7247C51.9187 37.3982 51.4215 38.4611 51.5427 39.633C51.6995 41.16 52.924 42.3968 54.4498 42.567C56.4409 42.7899 58.1319 41.231 58.1319 39.284C58.1319 38.2517 57.6544 37.3272 56.9086 36.7223C56.7433 36.5888 56.6429 36.3904 56.6429 36.1786C56.6429 35.6006 57.3127 35.2737 57.7621 35.6349C58.8287 36.4958 59.5132 37.8109 59.5132 39.2853C59.5132 41.9817 57.2233 44.1552 54.4841 43.9569C52.2187 43.7977 50.3733 41.9939 50.1627 39.7334L50.1614 39.7322ZM54.8245 33.5605C54.4424 33.5605 54.1338 33.8704 54.1338 34.2512V37.4313C54.1338 37.8134 54.4436 38.1219 54.8245 38.1219C55.2053 38.1219 55.5151 37.8121 55.5151 37.4313V34.2512C55.5151 33.8704 55.2065 33.5605 54.8245 33.5605Z" fill="#F2623B"/>
<path d="M47.1213 39.9865C46.7277 39.9865 45.9065 39.9704 45.331 39.9251C40.2905 39.6673 38.5325 38.564 36.9055 36.3283C35.0892 33.8832 33.623 31.0696 32.0703 28.4766C31.2895 27.1656 30.6526 26.8916 28.8501 26.8916L28.1639 26.8746C27.8947 26.8681 27.6724 27.0791 27.6724 27.3426V33.6973C27.6724 37.3022 28.117 37.7137 31.3121 38.0895C31.553 38.1178 31.7341 38.3174 31.7341 38.5543V39.213C31.7341 39.4717 31.5199 39.681 31.2556 39.681H18.5801C18.3158 39.681 18.1016 39.4717 18.1016 39.213V38.5567C18.1016 38.3183 18.2842 38.1186 18.5259 38.0911C21.7898 37.7266 22.1462 37.3039 22.1462 33.6965V15.9717C22.1462 12.4265 21.7033 11.9351 18.5308 11.6174C18.2867 11.5932 18.1016 11.3919 18.1016 11.1519V10.5012C18.1016 10.2425 18.3158 10.0332 18.5801 10.0332H31.0527C34.9413 10.0332 37.287 10.4737 39.1501 11.7023C41.0317 12.918 42.2902 14.9403 42.2902 17.7523C42.2902 21.5634 39.8662 23.7894 36.8739 25.1012C36.6169 25.2136 36.5134 25.5167 36.6508 25.7575C37.5133 27.2698 39.167 29.8887 40.4279 31.7647C42.093 34.2413 43.0694 35.4408 44.0208 36.4923C45.1588 37.7258 45.8677 38.1388 47.1213 38.5308V39.9857V39.9865ZM29.2736 25.1028C31.4253 25.1028 32.9643 24.7674 34.0393 23.8694C35.6761 22.5761 36.3615 20.8108 36.3615 18.4369C36.3615 13.5864 33.3539 11.8373 30.3996 11.8373C29.1079 11.8373 28.4363 12.02 28.1404 12.2932C27.7816 12.5825 27.6716 13.0982 27.6716 14.1061V24.6348C27.6716 24.8935 27.8858 25.1028 28.1501 25.1028H29.2728H29.2736Z" fill="#26326D"/>
</g>
<defs>
<filter id="filter0_b_1_8943" x="-37.7076" y="-36.7252" width="302.415" height="127.45" filterUnits="userSpaceOnUse" color-interpolation-filters="sRGB">
<feFlood flood-opacity="0" result="BackgroundImageFix"/>
<feGaussianBlur in="BackgroundImageFix" stdDeviation="18.8538"/>
<feComposite in2="SourceAlpha" operator="in" result="effect1_backgroundBlur_1_8943"/>
<feBlend mode="normal" in="SourceGraphic" in2="effect1_backgroundBlur_1_8943" result="shape"/>
</filter>
</defs>
</svg>
